<svg style="transform: none;" class="h-14 w-auto" xml:space="preserve" viewBox="0 0 144.2 37.5" y="0px" x="0px" height="37.5" width="144.2"><g><polygon points="0,0 0,9.5 7.8,9.5 7.8,7 12.9,7 12.9,30.5 10.2,30.5 10.2,37.5 24.4,37.5 24.4,30.5 21.3,30.5 21.3,7       26.5,7 26.5,9.5 34.3,9.5 34.3,0"></polygon><path d="M63.5,30.5l0-30l0-0.5H47.7v7h1.7L30.1,30.5h-3.1v7h14.2v-7h-1.6l2.7-3.3h13.2l0,3.3h-3.2v7h13.8v-7H63.5z       M55.6,20.2h-7.3l7.3-8.9L55.6,20.2z"></path><polygon points="92.6,0 92.6,7 95.5,7 95.5,23.1 79.5,0 68.5,0 68.5,7 71.3,7 71.3,30.5 68.5,30.5 68.5,37.5       82.1,37.5 82.1,30.5 79.3,30.5 79.3,13.2 96.3,37.5 103.6,37.5 103.6,7 106.5,7 106.5,0"></polygon><polygon points="144.2,0 133.2,0 120,15.9 120,7 122.3,7 122.3,0 108.7,0 108.7,7 111.6,7 111.6,30.5 108.5,30.5       108.5,37.5 123,37.5 123,30.5 120,30.5 120,21.6 133.2,37.5 144.1,37.4 128.4,18.7"></polygon></g></svg>
